<?xml version="1.0" encoding="UTF-8" standalone="no"?>
<svg width="28px" height="28px" viewBox="0 0 28 28" version="1.1" xmlns="http://www.w3.org/2000/svg" xmlns:xlink="http://www.w3.org/1999/xlink" xmlns:sketch="http://www.bohemiancoding.com/sketch/ns">
    <!-- Generator: Sketch 3.0.2 (7799) - http://www.bohemiancoding.com/sketch -->
    <title>Icon / Dribble</title>
    <description>Created with Sketch.</description>
    <defs></defs>
    <g id="Landing" stroke="none" stroke-width="1" fill="none" fill-rule="evenodd" sketch:type="MSPage">
        <g sketch:type="MSArtboardGroup" transform="translate(-358.000000, -549.000000)" id="Intro" fill="#FFFFFF">
            <g sketch:type="MSLayerGroup" transform="translate(100.000000, 112.000000)">
                <g id="Sources" transform="translate(147.000000, 437.000000)" sketch:type="MSShapeGroup">
                    <path d="M124.93,27.9197073 C117.248958,27.9197073 111,21.6573659 111,13.9599024 C111,6.26234146 117.248958,0 124.93,0 C132.611042,0 138.86,6.26234146 138.86,13.9599024 C138.86,21.6573659 132.611042,27.9197073 124.93,27.9197073 L124.93,27.9197073 Z M136.677847,15.8708293 C136.270778,15.7420488 132.995069,14.7629268 129.2665,15.3610732 C130.822736,19.6468293 131.456139,23.1372683 131.578056,23.8626341 C134.247389,22.0538537 136.147597,19.1884878 136.677847,15.8708293 L136.677847,15.8708293 Z M129.577708,24.9543415 C129.400764,23.9081951 128.71,20.2621463 127.039431,15.912 C127.013375,15.9209756 126.987125,15.9294634 126.960972,15.9385366 C120.249917,18.2821463 117.840847,22.9461463 117.626667,23.384878 C119.644028,24.9613659 122.179389,25.9019512 124.93,25.9019512 C126.578208,25.9019512 128.149222,25.5640976 129.577708,24.9543415 L129.577708,24.9543415 Z M116.090361,21.9507317 C116.359958,21.4883902 119.625361,16.0699512 125.761833,14.0822439 C125.916903,14.032 126.073333,13.9847805 126.230736,13.9403902 C125.932069,13.2629268 125.606764,12.5847805 125.266097,11.9167805 C119.324167,13.6989268 113.558306,13.6243902 113.037681,13.6137561 C113.034083,13.7347317 113.031653,13.8560976 113.031653,13.9780488 C113.031653,17.0405854 114.190056,19.8367805 116.090361,21.9507317 L116.090361,21.9507317 Z M113.282972,11.5359024 C113.815167,11.5429268 118.717208,11.5642927 124.282889,10.083122 C122.311417,6.57102439 120.185167,3.6182439 119.871431,3.18712195 C116.542736,4.76058537 114.054528,7.83580488 113.282972,11.5359024 L113.282972,11.5359024 Z M122.141764,2.38565854 C122.470569,2.82692683 124.631625,5.77609756 126.581319,9.36604878 C130.812333,7.77687805 132.603361,5.36419512 132.817347,5.05882927 C130.716181,3.19063415 127.953222,2.05414634 124.93,2.05414634 C123.970028,2.05414634 123.0365,2.16956098 122.141764,2.38565854 L122.141764,2.38565854 Z M134.140056,6.43765854 C133.889319,6.77765854 131.895389,9.33912195 127.496181,11.139122 C127.772972,11.707122 128.038486,12.2847805 128.285528,12.8662439 C128.373125,13.0722927 128.458389,13.2774634 128.541806,13.481561 C132.500986,12.9827317 136.434694,13.7822439 136.826986,13.8654634 C136.800736,11.0510244 135.797208,8.46673171 134.140056,6.43765854 L134.140056,6.43765854 Z" id="Icon-/-Dribble"></path>
                </g>
            </g>
        </g>
    </g>
</svg>