<?xml version="1.0" encoding="UTF-8" standalone="no"?>
<svg width="27px" height="28px" viewBox="0 0 27 28" version="1.1" xmlns="http://www.w3.org/2000/svg" xmlns:xlink="http://www.w3.org/1999/xlink" xmlns:sketch="http://www.bohemiancoding.com/sketch/ns">
    <!-- Generator: Sketch 3.0.2 (7799) - http://www.bohemiancoding.com/sketch -->
    <title>Icon / Linkedin</title>
    <description>Created with Sketch.</description>
    <defs></defs>
    <g id="Landing" stroke="none" stroke-width="1" fill="none" fill-rule="evenodd" sketch:type="MSPage">
        <g sketch:type="MSArtboardGroup" transform="translate(-247.000000, -549.000000)" id="Intro">
            <g sketch:type="MSLayerGroup" transform="translate(100.000000, 112.000000)">
                <g id="Sources" transform="translate(147.000000, 437.000000)" sketch:type="MSShapeGroup">
                    <g id="Icon-/-Linkedin">
                        <g id="Group-3" fill="#FFFFFF">
                            <path d="M1.96032787,0 C0.878483607,0 0,0.904425926 0,2.01742593 L0,25.9795926 C0,27.0946667 0.878483607,28 1.96032787,28 L24.5902869,28 C25.6733607,28 26.557377,27.0946667 26.557377,25.9795926 L26.557377,2.01742593 C26.557377,0.904425926 25.6733607,0 24.5902869,0 L1.96032787,0 Z" id="Fill-1"></path>
                        </g>
                        <path d="M5.90618852,3.85492593 C7.16545082,3.85492593 8.18901639,4.93409259 8.18901639,6.26227778 C8.18901639,7.59188889 7.16545082,8.67105556 5.90618852,8.67105556 C4.64360656,8.67105556 3.6229918,7.59188889 3.6229918,6.26227778 C3.6229918,4.93409259 4.64360656,3.85492593 5.90618852,3.85492593 L5.90618852,3.85492593 Z M3.93565574,10.4979259 L7.87635246,10.4979259 L7.87635246,23.8600185 L3.93565574,23.8600185 L3.93565574,10.4979259 Z" id="Fill-4" fill="#0F0F0F"></path>
                        <path d="M10.3468033,10.4979259 L14.1256967,10.4979259 L14.1256967,12.3229815 L14.1794262,12.3229815 C14.7054098,11.2727222 15.9906148,10.1647778 17.9069262,10.1647778 C21.8927459,10.1647778 22.6289754,12.9315926 22.6289754,16.5307593 L22.6289754,23.8600185 L18.6945492,23.8600185 L18.6945492,17.3623333 C18.6945492,15.8118333 18.6656557,13.8187778 16.6470492,13.8187778 C14.5973361,13.8187778 14.2846721,15.5069444 14.2846721,17.2498148 L14.2846721,23.8600185 L10.3468033,23.8600185 L10.3468033,10.4979259" id="Fill-5" fill="#0F0F0F"></path>
                    </g>
                </g>
            </g>
        </g>
    </g>
</svg>