<?xml version="1.0" encoding="UTF-8" standalone="no"?>
<svg width="28px" height="25px" viewBox="0 0 28 25" version="1.1" xmlns="http://www.w3.org/2000/svg" xmlns:xlink="http://www.w3.org/1999/xlink" xmlns:sketch="http://www.bohemiancoding.com/sketch/ns">
    <!-- Generator: Sketch 3.0.2 (7799) - http://www.bohemiancoding.com/sketch -->
    <title>Icon / Twitter</title>
    <description>Created with Sketch.</description>
    <defs></defs>
    <g id="Landing" stroke="none" stroke-width="1" fill="none" fill-rule="evenodd" sketch:type="MSPage">
        <g sketch:type="MSArtboardGroup" transform="translate(-302.000000, -551.000000)" id="Intro" fill="#FFFFFF">
            <g sketch:type="MSLayerGroup" transform="translate(100.000000, 112.000000)">
                <g id="Sources" transform="translate(147.000000, 437.000000)" sketch:type="MSShapeGroup">
                    <path d="M63.8058817,26.822 C60.5617982,26.822 57.5422144,25.8190204 55,24.0999663 C55.4494093,24.1559215 55.9067047,24.1845471 56.37035,24.1845471 C59.0616848,24.1845471 61.5386591,23.2159184 63.504671,21.590951 C60.9909287,21.5420173 58.8694466,19.7903407 58.1384908,17.3831897 C58.4891693,17.4539438 58.8490654,17.4918593 59.2192033,17.4918593 C59.7431728,17.4918593 60.2506529,17.4178646 60.7327335,17.279381 C58.1046929,16.7228543 56.1246498,14.2740069 56.1246498,11.3384148 C56.1246498,11.3129217 56.1246498,11.2875366 56.1250594,11.2622596 C56.8996452,11.7160579 57.7853543,11.9885962 58.7270858,12.0200304 C57.1856981,10.9335502 56.1714547,9.07903715 56.1714547,6.97704685 C56.1714547,5.86669389 56.4547423,4.82590678 56.9492154,3.9310567 C59.7825012,7.59665816 64.0153261,10.0087782 68.7896339,10.2614404 C68.6917224,9.81801221 68.6408208,9.35557218 68.6408208,8.88070968 C68.6408208,5.53474384 71.2129412,2.822 74.3855371,2.822 C76.037741,2.822 77.5306851,3.55784243 78.5786239,4.73538476 C79.8871136,4.46360268 81.1165368,3.95935833 82.2264384,3.26510418 C81.7975127,4.67986171 80.8867113,5.867234 79.7006108,6.61711923 C80.8626431,6.47064208 81.9697794,6.14495727 83,5.66307337 C82.2298182,6.87809916 81.255825,7.94524353 80.1335309,8.79947752 C80.144592,9.05926922 80.1501225,9.32057322 80.1501225,9.5832815 C80.1501225,17.5897268 74.3721204,26.822 63.8058817,26.822" id="Icon-/-Twitter"></path>
                </g>
            </g>
        </g>
    </g>
</svg>