<svg width="272" height="144" viewBox="0 0 272 144" fill="none" xmlns="http://www.w3.org/2000/svg">
<path d="M231.598 138.908L202.66 88.5889H181.279V138.908H149.76V5.27626H201.185C235.837 5.27626 261.827 13.3863 261.827 46.5639C261.827 66.2862 250.952 77.5297 235.653 83.4279L268.646 138.908H231.598ZM202.107 31.8183H181.279V62.0468H202.107C217.037 62.0468 228.465 59.6507 228.465 46.9326C228.465 34.5831 217.037 31.8183 202.107 31.8183Z" fill="#FCFDFE"/>
<path d="M2.88 72.3686C2.88 31.2653 33.6614 2.88 72 2.88C110.154 2.88 140.936 31.2653 140.936 72.3686C140.936 113.288 110.154 141.304 72 141.304C33.6614 141.304 2.88 113.288 2.88 72.3686ZM17.6256 72.3686C17.6256 105.362 41.4029 128.033 72 128.033C102.966 128.033 126.374 105.362 126.374 72.3686C126.374 39.0067 102.966 16.3354 72 16.3354C41.4029 16.3354 17.6256 39.0067 17.6256 72.3686Z" fill="#FCFDFE"/>
<path d="M90.0634 81.216C87.6672 91.5379 80.2944 95.2243 72 95.2243C61.4938 95.2243 53.9366 86.9299 53.9366 71.447C53.9366 55.9642 61.6781 48.2227 72 48.2227C81.4003 48.2227 87.8515 54.3053 89.5104 63.7056L106.468 59.0976C103.15 44.5363 90.2477 33.6614 72.1843 33.6614C50.0659 33.6614 35.5046 48.5914 35.5046 71.447C35.5046 94.1184 48.7757 109.601 71.6314 109.601C90.0634 109.601 103.15 99.2794 107.021 85.4554L90.0634 81.216Z" fill="#FCFDFE"/>
</svg>
